<svg width="33" height="32" viewBox="0 0 33 32" fill="none" xmlns="http://www.w3.org/2000/svg">
<path d="M16.0957 0C7.26007 0 0.0957031 7.16296 0.0957031 15.9993C0.0957031 24.8356 7.25937 31.9986 16.0957 31.9986C24.9327 31.9986 32.0957 24.8356 32.0957 15.9993C32.0957 7.16296 24.9327 0 16.0957 0ZM16.0957 4.78398C19.0194 4.78398 21.3885 7.15383 21.3885 10.0761C21.3885 12.999 19.0194 15.3682 16.0957 15.3682C13.1735 15.3682 10.8043 12.999 10.8043 10.0761C10.8043 7.15383 13.1735 4.78398 16.0957 4.78398ZM16.0922 27.8155C13.1763 27.8155 10.5056 26.7536 8.4457 24.9959C7.9439 24.5679 7.65434 23.9403 7.65434 23.2817C7.65434 20.318 10.053 17.9461 13.0174 17.9461H19.1754C22.1405 17.9461 24.53 20.318 24.53 23.2817C24.53 23.941 24.2419 24.5672 23.7394 24.9952C21.6802 26.7536 19.0088 27.8155 16.0922 27.8155Z" fill="#6D6F73"/>
</svg>
